<?xml version="1.0" encoding="utf-8"?>
<!-- Generator: Adobe Illustrator 23.1.0, SVG Export Plug-In . SVG Version: 6.00 Build 0)  -->
<svg version="1.1" id="Calque_1" xmlns="http://www.w3.org/2000/svg" xmlns:xlink="http://www.w3.org/1999/xlink" x="0px" y="0px"
	 viewBox="0 0 522.67 184" style="enable-background:new 0 0 522.67 184;" xml:space="preserve">
<style type="text/css">
	.st0{fill:#E8A334;}
	.st1{fill:#493C2C;}
	.st2{fill:#DB4C95;}
	.st3{fill:#512D3D;}
	.st4{fill:#6AC4E5;}
	.st5{fill:#303245;}
</style>
<g>
	<path class="st0" d="M153.41,94.25c0,19.44,0,38.89,0,58.33c0,0.42,0,0.83,0,1.25c-0.03,4.06-0.03,4.09-4.08,4.08
		c-39.86-0.05-79.73-0.1-119.59-0.15c-0.69,0-1.39-0.03-2.08-0.01c-1.39,0.05-2.05-0.59-2.01-1.99c0.03-0.97,0-1.94,0-2.92
		c0.03-39.31,0.06-78.61,0.09-117.92c0-0.56-0.01-1.11,0-1.67c0.08-3.07,0.08-3.11,3.33-3.14c4.44-0.04,8.89-0.02,13.33-0.02
		c35.14-0.03,70.28-0.06,105.42-0.08c0.69,0,1.39-0.01,2.08,0c3.57,0.07,3.62,0.07,3.62,3.82c0.02,20.14,0.01,40.27,0.01,60.41
		C153.51,94.25,153.46,94.25,153.41,94.25z M147.21,94.19c-0.01,0-0.01,0-0.02,0c0-18.19,0.01-36.39-0.01-54.58
		c0-3.21-0.06-3.21-3.17-3.29c-0.42-0.01-0.83,0-1.25,0c-35.42,0.02-70.84,0.04-106.26,0.08c-4.75,0-4.44-0.53-4.44,4.52
		c-0.01,26.67-0.01,53.33-0.01,80c0,9.03-0.02,18.06,0.01,27.08c0.01,3.36,0.06,3.41,3.49,3.43c8.06,0.04,16.11,0.03,24.17,0.04
		c27.78,0.03,55.56,0.06,83.34,0.09c4.13,0,4.13-0.02,4.16-4.02c0.01-0.69,0-1.39,0-2.08C147.21,128.35,147.21,111.27,147.21,94.19z
		"/>
	<path class="st1" d="M147.21,94.19c0,17.08,0,34.17,0,51.25c0,0.69,0.01,1.39,0,2.08c-0.03,4-0.03,4.03-4.16,4.02
		c-27.78-0.02-55.56-0.06-83.34-0.09c-8.06-0.01-16.11,0-24.17-0.04c-3.42-0.02-3.48-0.06-3.49-3.43
		c-0.03-9.03-0.01-18.06-0.01-27.08c0-26.67,0-53.33,0.01-80c0-5.05-0.31-4.51,4.44-4.52c35.42-0.03,70.84-0.05,106.26-0.08
		c0.42,0,0.83-0.01,1.25,0c3.1,0.07,3.16,0.08,3.17,3.29c0.02,18.19,0.01,36.39,0.01,54.58C147.19,94.19,147.2,94.19,147.21,94.19z
		 M104.47,119.14c0.48-1.47-0.4-2.71-0.81-3.98c-3.97-12.4-8-24.78-12.05-37.15c-0.9-2.75-0.9-6.44-3.15-7.91
		c-2.38-1.55-5.94-0.32-8.97-0.53c-1.88-0.13-2.8,0.72-3.21,2.46c-1.54,6.52-4.71,12.48-6.55,18.9c-2.48,8.65-5.16,17.25-7.75,25.87
		c-0.23,0.78-0.71,1.53-0.34,2.4c0.71,0.58,1.57,0.42,2.38,0.44c6.62,0.17,6.6,0.16,8.6-6.33c0.77-2.5,0.98-5.73,2.68-7.25
		c1.93-1.73,5.32-0.61,8.06-0.58c9.14,0.1,6.69-1.52,9.52,6.79c2.7,7.94,2.59,7.98,10.88,7.23
		C104,119.5,104.22,119.28,104.47,119.14z M108.66,101.32c0,4.29-0.03,8.59,0.01,12.88c0.05,6.07-0.73,5.35,5.68,5.37
		c3.44,0.01,3.5-0.05,3.51-3.39c0.03-8.86,0.08-17.73-0.01-26.59c-0.07-6.58,1.61-6.26-6.54-6.31c-1.97-0.01-2.7,0.69-2.67,2.67
		C108.72,91.07,108.67,96.2,108.66,101.32z M113.18,78.2c2.94,0.03,4.98-1.93,4.97-4.78c-0.01-2.86-2.09-4.83-5.06-4.81
		c-3.05,0.03-5.06,1.96-5.05,4.84C108.05,76.31,110.06,78.16,113.18,78.2z"/>
	<path class="st0" d="M104.47,119.14c-0.25,0.14-0.47,0.35-0.71,0.38c-8.29,0.76-8.18,0.72-10.88-7.23
		c-2.83-8.32-0.38-6.69-9.52-6.79c-2.74-0.03-6.13-1.15-8.06,0.58c-1.7,1.52-1.9,4.75-2.68,7.25c-2,6.48-1.98,6.49-8.6,6.33
		c-0.81-0.02-1.67,0.14-2.38-0.44c-0.37-0.87,0.11-1.62,0.34-2.4c2.59-8.62,5.26-17.22,7.75-25.87c1.85-6.43,5.01-12.38,6.55-18.9
		c0.41-1.74,1.33-2.59,3.21-2.46c3.03,0.21,6.58-1.03,8.97,0.53c2.26,1.47,2.25,5.17,3.15,7.91c4.05,12.37,8.08,24.75,12.05,37.15
		C104.07,116.43,104.95,117.67,104.47,119.14z M81.96,78.32c-0.42,4.51-1.88,8.61-3.12,12.77c-0.51,1.72-1.08,3.43-1.6,5.15
		c-0.4,1.34,0,2.17,1.52,2.18c2.77,0.02,5.54,0.03,8.31,0.03c1.15,0,1.95-0.4,1.53-1.74c-1.85-5.94-3.72-11.87-5.61-17.79
		C82.93,78.75,82.58,78.67,81.96,78.32z"/>
	<path class="st0" d="M108.66,101.32c0-5.12,0.06-10.25-0.03-15.37c-0.03-1.98,0.7-2.68,2.67-2.67c8.15,0.05,6.47-0.27,6.54,6.31
		c0.09,8.86,0.04,17.73,0.01,26.59c-0.01,3.34-0.07,3.41-3.51,3.39c-6.41-0.02-5.63,0.7-5.68-5.37
		C108.64,109.91,108.66,105.61,108.66,101.32z"/>
	<path class="st0" d="M113.18,78.2c-3.12-0.04-5.13-1.89-5.14-4.74c-0.01-2.88,2-4.81,5.05-4.84c2.97-0.03,5.05,1.95,5.06,4.81
		C118.16,76.27,116.12,78.23,113.18,78.2z"/>
	<path class="st1" d="M81.96,78.32c0.62,0.35,0.97,0.43,1.03,0.6c1.89,5.92,3.76,11.85,5.61,17.79c0.42,1.34-0.38,1.74-1.53,1.74
		c-2.77,0-5.54-0.01-8.31-0.03c-1.52-0.01-1.92-0.85-1.52-2.18c0.51-1.72,1.08-3.43,1.6-5.15C80.08,86.93,81.54,82.83,81.96,78.32z"
		/>
</g>
<g>
	<path class="st2" d="M434.67,156.63c-19.3,0-38.6,0-57.91,0c-1.11,0-2.22-0.05-3.33,0c-1.6,0.06-2.28-0.69-2.21-2.25
		c0.04-0.83,0-1.67,0-2.5c0.03-39.44,0.05-78.87,0.08-118.31c0-0.69,0.06-1.39-0.01-2.08c-0.18-1.93,0.57-2.88,2.6-2.71
		c0.96,0.08,1.94,0.01,2.91,0.01c38.88-0.01,77.77-0.02,116.65-0.02c6.13,0,5.47-0.47,5.47,5.25c0,39.3-0.02,78.59-0.04,117.89
		c0,5.29,0.4,4.82-5.06,4.82c-17.91-0.01-35.83-0.05-53.74-0.08c-1.81,0-3.61,0-5.42,0C434.67,156.64,434.67,156.64,434.67,156.63z
		 M435.09,35.09c0,0.01,0,0.03,0,0.04c-18.05,0-36.11-0.01-54.16,0.01c-3.62,0-3.66,0.04-3.66,3.6c-0.01,35.97-0.01,71.94,0,107.91
		c0,3.61,0.04,3.61,3.64,3.66c0.28,0,0.56,0,0.83,0c35.55,0.02,71.11,0.04,106.66,0.07c5.02,0,4.47,0.06,4.47-4.54
		c0.01-35.41,0-70.83,0-106.24c0-0.97-0.01-1.94-0.02-2.92c-0.01-1-0.53-1.53-1.52-1.56c-1.11-0.03-2.22-0.03-3.33-0.03
		C470.37,35.09,452.73,35.09,435.09,35.09z"/>
	<path class="st3" d="M435.09,35.09c17.64,0,35.28,0,52.91,0c1.11,0,2.22-0.01,3.33,0.03c0.99,0.03,1.51,0.56,1.52,1.56
		c0.01,0.97,0.02,1.94,0.02,2.92c0,35.41,0,70.83,0,106.24c0,4.6,0.54,4.55-4.47,4.54c-35.55-0.03-71.11-0.05-106.66-0.07
		c-0.28,0-0.56,0-0.83,0c-3.6-0.05-3.64-0.05-3.64-3.66c-0.01-35.97-0.01-71.94,0-107.91c0-3.56,0.04-3.59,3.66-3.6
		c18.05-0.01,36.11-0.01,54.16-0.01C435.09,35.12,435.09,35.11,435.09,35.09z M450.74,114.28c1.06,0.46,1.19,1.21,1.17,1.85
		c-0.07,2.09,1,2.65,2.86,2.41c0.55-0.07,1.11,0,1.66-0.01c2.98-0.08,2.98-0.08,2.97-2.99c-0.06-14.57-0.07-29.15-0.2-43.72
		c-0.06-6.6,1.36-5.68-6.02-5.82c-1.8-0.03-2.45,0.62-2.42,2.41c0.08,4.72,0.04,9.44,0,14.16c-0.01,0.88,0.36,1.96-0.92,2.59
		c-1.27-0.63-2.84-1.04-3.88-2.02c-1.29-1.21-2.66-1.31-4.19-1.33c-5.38-0.07-9.27,2.49-12.01,6.92c-2.57,4.16-3.32,8.81-3.05,13.59
		c0.24,4.34,1.29,8.5,4.07,12.03c4.07,5.16,10.19,6.48,15.83,3.35C448.23,116.79,449.78,115.77,450.74,114.28z M410.52,93.9
		c0,6.37-0.05,12.75,0.01,19.12c0.06,6.25-1,5.47,5.46,5.52c3.63,0.02,3.66-0.03,3.67-3.57c0.02-13.58,0.04-27.16-0.01-40.73
		c-0.02-6.28,1.04-5.53-5.87-5.57c-3.17-0.02-3.23,0.06-3.24,3.21C410.49,79.21,410.52,86.56,410.52,93.9z"/>
	<path class="st2" d="M450.74,114.28c-0.97,1.49-2.51,2.52-4.12,3.41c-5.64,3.14-11.76,1.81-15.83-3.35
		c-2.79-3.53-3.83-7.68-4.07-12.03c-0.26-4.78,0.49-9.43,3.05-13.59c2.74-4.43,6.63-6.99,12.01-6.92c1.53,0.02,2.9,0.12,4.19,1.33
		c1.04,0.98,2.61,1.39,3.88,2.02c1.28-0.63,0.92-1.71,0.92-2.59c0.04-4.72,0.07-9.44,0-14.16c-0.03-1.79,0.63-2.44,2.42-2.41
		c7.38,0.14,5.96-0.78,6.02,5.82c0.13,14.57,0.14,29.14,0.2,43.72c0.01,2.91,0.01,2.91-2.97,2.99c-0.55,0.01-1.12-0.06-1.66,0.01
		c-1.85,0.24-2.93-0.32-2.86-2.41C451.94,115.49,451.8,114.73,450.74,114.28z M450.87,100.82c-0.09-1.92-0.03-3.73-0.28-5.5
		c-0.49-3.44-2.76-5.67-6.16-6.34c-2.93-0.58-5.81,0.86-7.42,4.02c-2.4,4.7-2.42,9.62-0.41,14.43c1.4,3.36,4.25,4.85,7.63,4.47
		c3.14-0.35,5.68-2.77,6.3-6.24C450.81,104.04,450.77,102.36,450.87,100.82z"/>
	<path class="st2" d="M410.52,93.9c0-7.34-0.02-14.69,0.01-22.03c0.01-3.15,0.07-3.22,3.24-3.21c6.91,0.04,5.85-0.71,5.87,5.57
		c0.05,13.58,0.03,27.16,0.01,40.73c0,3.54-0.04,3.6-3.67,3.57c-6.46-0.04-5.39,0.73-5.46-5.52
		C410.47,106.65,410.52,100.27,410.52,93.9z"/>
	<path class="st3" d="M450.87,100.82c-0.1,1.54-0.05,3.22-0.34,4.84c-0.62,3.47-3.16,5.89-6.3,6.24c-3.38,0.37-6.23-1.11-7.63-4.47
		c-2.01-4.81-1.99-9.72,0.41-14.43c1.61-3.16,4.49-4.6,7.42-4.02c3.4,0.67,5.67,2.91,6.16,6.34
		C450.84,97.09,450.78,98.91,450.87,100.82z"/>
</g>
<g>
	<path class="st4" d="M201.32,92.55c0-19.3,0-38.6,0-57.9c0-0.97,0.06-1.95-0.01-2.91c-0.16-2.05,0.52-3.22,2.79-2.98
		c0.69,0.07,1.39,0.01,2.08,0.01c39.3,0,78.6,0,117.9,0c0.42,0,0.83-0.01,1.25,0c3.6,0.07,3.66,0.07,3.66,3.75
		c0.02,40.27,0.03,80.54,0.02,120.8c0,3.54-0.07,3.59-3.83,3.59c-12.36,0-24.72-0.05-37.08-0.05c-27.22,0.01-54.43,0.04-81.65,0.06
		c-5.65,0-5.12,0.33-5.12-5.22C201.31,131.99,201.32,112.27,201.32,92.55z M322.9,92.89c-0.08,0-0.17,0-0.25,0
		c0-8.46,0-16.92,0-25.38c0-9.3-0.01-18.6,0-27.9c0.01-5.47,0.19-4.89-4.99-4.89c-35.11-0.01-70.23,0-105.34,0
		c-0.97,0-1.94,0.05-2.91,0c-1.65-0.08-2.16,0.75-2.14,2.29c0.06,3.33,0.02,6.66,0.02,9.99c0,32.75,0,65.51,0,98.26
		c0,5.08,0.01,5.09,4.91,5.09c16.24-0.02,32.48-0.06,48.71-0.07c19.43-0.01,38.86,0.01,58.29-0.01c3.65,0,3.65-0.05,3.71-3.67
		c0.01-0.83,0-1.67,0-2.5C322.9,127.03,322.9,109.96,322.9,92.89z"/>
	<path class="st5" d="M322.9,92.89c0,17.07,0,34.14,0,51.21c0,0.83,0.01,1.67,0,2.5c-0.06,3.63-0.06,3.67-3.71,3.67
		c-19.43,0.02-38.86,0-58.29,0.01c-16.24,0.01-32.48,0.05-48.71,0.07c-4.89,0.01-4.9-0.01-4.91-5.09c0-32.75,0-65.51,0-98.26
		c0-3.33,0.04-6.66-0.02-9.99c-0.03-1.54,0.49-2.37,2.14-2.29c0.97,0.05,1.94,0,2.91,0c35.11,0,70.23-0.01,105.34,0
		c5.18,0,5-0.58,4.99,4.89c-0.01,9.3,0,18.6,0,27.9c0,8.46,0,16.92,0,25.38C322.73,92.89,322.82,92.89,322.9,92.89z M247.69,67.13
		c-3.3-0.22-6.46,0.21-9.62,0.64c-2.99,0.4-3.04,0.37-3.04,3.53c0,13.19,0.04,26.38,0.06,39.57c0.01,6.9,0,6.84,6.81,6.37
		c1.67-0.11,2.1-0.76,2.08-2.28c-0.06-4.3,0-8.61-0.02-12.91c-0.02-3.68,0.09-3.44,3.43-3.32c4.5,0.16,8.85-0.39,12.91-2.48
		c5.86-3.01,8.93-8.9,8.11-15.54c-0.86-6.92-4.9-11.35-11.71-12.82C253.7,67.25,250.68,66.85,247.69,67.13z M291.68,88.6
		c0.81-1.41,1.06-2.9,1.46-4.35c0.37-1.34-0.11-2.06-1.4-2.49c-5.03-1.7-10.05-2.1-14.96,0.31c-3.76,1.85-5.96,4.88-6.19,9.17
		c-0.22,4.1,1.98,6.8,5.22,8.82c1.17,0.73,2.45,1.29,3.71,1.86c1.39,0.62,2.85,1.08,4.21,1.75c1.75,0.85,2.88,2.21,2.62,4.3
		c-0.23,1.87-1.71,3.05-4.2,3.32c-3.1,0.33-6.09-0.13-8.91-1.49c-1.31-0.63-2.1-0.34-2.43,1.1c-0.15,0.68-0.2,1.4-0.48,2.02
		c-0.9,1.96-0.36,2.98,1.71,3.7c4.32,1.5,8.72,1.81,13.13,1.01c5.95-1.09,9.36-4.68,9.83-9.75c0.49-5.25-2.01-8.96-7.76-11.46
		c-1.65-0.72-3.39-1.23-5.01-2.02c-2.39-1.16-3.26-2.69-2.8-4.51c0.44-1.76,2-2.66,4.55-2.88C286.7,86.74,289.11,87.91,291.68,88.6z
		"/>
	<path class="st4" d="M247.6,66.74c2.99-0.27,6,0.12,9,0.77c6.81,1.47,10.86,5.9,11.71,12.82c0.82,6.64-2.24,12.53-8.11,15.54
		c-4.06,2.08-8.42,2.64-12.91,2.48c-3.34-0.12-3.45-0.36-3.43,3.32c0.03,4.3-0.03,8.61,0.02,12.91c0.02,1.52-0.4,2.16-2.08,2.28
		c-6.81,0.46-6.8,0.53-6.81-6.37c-0.02-13.19-0.06-26.38-0.06-39.57c0-3.16,0.05-3.13,3.04-3.53
		C241.15,66.95,244.31,66.52,247.6,66.74z M243.87,82.37c0,2.21,0.06,4.42-0.02,6.62c-0.05,1.37,0.52,2.01,1.82,2.22
		c3.68,0.59,7.19,0.13,10.27-2.02c3.04-2.12,3.83-5.25,3.23-8.79c-0.6-3.57-2.87-5.5-6.26-6.3c-1.61-0.38-3.22-0.7-4.91-0.59
		c-3.96,0.25-4.12,0.39-4.14,4.3C243.86,79.33,243.87,80.85,243.87,82.37z"/>
	<path class="st4" d="M291.68,88.6c-2.58-0.69-4.98-1.85-7.7-1.61c-2.55,0.22-4.1,1.12-4.55,2.88c-0.46,1.82,0.41,3.35,2.8,4.51
		c1.62,0.78,3.36,1.3,5.01,2.02c5.76,2.5,8.25,6.21,7.76,11.46c-0.47,5.08-3.89,8.67-9.83,9.75c-4.4,0.8-8.81,0.5-13.13-1.01
		c-2.07-0.72-2.62-1.74-1.71-3.7c0.28-0.62,0.33-1.34,0.48-2.02c0.33-1.44,1.12-1.73,2.43-1.1c2.82,1.36,5.81,1.82,8.91,1.49
		c2.48-0.27,3.97-1.44,4.2-3.32c0.26-2.09-0.87-3.44-2.62-4.3c-1.36-0.67-2.82-1.13-4.21-1.75c-1.26-0.57-2.54-1.13-3.71-1.86
		c-3.24-2.03-5.44-4.73-5.22-8.82c0.23-4.29,2.42-7.33,6.19-9.17c4.9-2.41,9.92-2.01,14.96-0.31c1.29,0.43,1.77,1.16,1.4,2.49
		C292.75,85.69,292.49,87.19,291.68,88.6z"/>
	<path class="st5" d="M243.96,82.75c0-1.52-0.01-3.04,0-4.55c0.02-3.91,0.18-4.05,4.14-4.3c1.68-0.11,3.29,0.21,4.91,0.59
		c3.39,0.8,5.66,2.73,6.26,6.3c0.59,3.54-0.19,6.66-3.23,8.79c-3.08,2.15-6.59,2.61-10.27,2.02c-1.3-0.21-1.87-0.85-1.82-2.22
		C244.02,87.17,243.96,84.96,243.96,82.75z"/>
</g>
</svg>
