<?xml version="1.0" encoding="utf-8"?>
<!-- Generator: Adobe Illustrator 23.1.0, SVG Export Plug-In . SVG Version: 6.00 Build 0)  -->
<svg version="1.1" id="Calque_1" xmlns="http://www.w3.org/2000/svg" xmlns:xlink="http://www.w3.org/1999/xlink" x="0px" y="0px"
	 viewBox="0 0 595.28 225.67" style="enable-background:new 0 0 595.28 225.67;" xml:space="preserve">
<style type="text/css">
	.st0{fill:#0B0B0C;}
	.st1{fill:#4D4A4A;}
	.st2{fill:#696868;}
</style>
<g>
	<path class="st0" d="M502.13,14.28c4.74,0.01,9.47,0.01,14.21,0.02c2.57,0.03,5.15,0.06,7.72,0.09c0.16,0.18,0.31,0.36,0.47,0.55
		c-0.53,2.22,0.75,4.67-0.84,6.76c-5.61-0.15-11.23-0.78-16.83,0.2l-0.01,0c-0.88,0.84-0.93,1.68,0.04,2.49
		c3.14,0.36,6.29,0.25,9.43,0.06c2.61,0.04,5.22,0.08,7.83,0.11c0.04,0.23,0.16,0.39,0.38,0.49c0.01,0.31,0.02,0.61,0.04,0.92
		c0,4.51,0,9.03,0,13.54c-0.04,0.96-0.47,1.57-1.49,1.66c-7.65-0.3-15.31-0.34-22.97-0.02c-0.86-0.24-0.74-1.03-0.91-1.65
		c0.05-0.67,0.24-1.36,0.11-1.99c-0.6-3.07,0.81-3.72,3.63-3.59c4.23,0.2,8.48-0.02,12.72-0.06c0.54,0.13,1.17,0.53,1.35-0.45
		c0.3-0.68,0.32-1.35-0.03-2.01c-4.01-1.21-8.09-0.45-12.14-0.4c-0.46,0-0.92,0-1.39,0c-1.12-0.32-2.24-0.28-3.37-0.06
		c-1.51-1.44-0.27-3.36-0.88-4.96c0.04-2.88,0.29-5.77,0.07-8.62C499.1,15.02,499.93,14.15,502.13,14.28z"/>
	<path class="st0" d="M470.24,25.96c0.04-3.15,0.16-6.29,0.1-9.44c-0.03-1.62,0.53-2.13,2.14-2.12c6.98,0.07,13.95,0.08,20.93-0.01
		c1.65-0.02,2.24,0.55,2.06,2.13c-0.19,1.66,0.35,3.37-0.35,4.99c-5.71-0.04-11.44-0.56-17.15,0.18c-0.59,0.68-0.39,1.45-0.24,2.22
		c-0.1,0.56,0.17,0.69,0.66,0.56c3.61-0.01,7.22-0.02,10.82-0.03c6.21,0.39,6.21,0.39,6.21,6.71c0,3.24,0,6.49,0,9.73
		c-0.27,0.09-0.55,0.18-0.82,0.27c-7.64-0.28-15.29-0.33-22.93,0.01c-2.21-0.6-1-2.4-1.25-3.66c-0.55-2.76,0.53-3.72,3.4-3.55
		c4.16,0.24,8.34,0.05,12.52,0.03c1.01,0,2.05,0.19,2.11-1.41c0.07-1.7-0.91-1.76-2.15-1.75c-3.61,0.02-7.22,0.01-10.83-0.02
		C470.62,30.78,470.62,30.76,470.24,25.96z"/>
	<path class="st0" d="M462.1,33.89c1.42,0.06,2.84,0.12,4.26,0.17c0.08,2.26,0.16,4.53,0.24,6.79c-0.38,0.1-0.75,0.2-1.13,0.3
		c-7.21-0.35-14.42-0.32-21.63,0c-0.79-0.34-1.98,0.25-2.39-1c0.05-6.04,0.13-12.08,0.16-18.12c0.03-7.25,0.01-7.25,6.96-7.73
		c4.5,0,9.01,0,13.51,0c0.69,0,1.38,0,2.07,0c0.71,0.03,1.42,0.07,2.13,0.1c0.18,0.28,0.35,0.55,0.53,0.83
		c-0.01,1.93-0.02,3.85-0.04,5.78c-1.49,0.78-3.08,0.36-4.64,0.44c-4.43,0.23-8.89-0.63-13.29,0.48c-0.43,1.33-0.28,2.67-0.11,4.01
		c-0.19,2.49-0.29,4.99,0.05,7.48c-0.12,0.41,0.01,0.56,0.43,0.41c4.07,0.02,8.15,0.03,12.22,0.05
		C461.66,33.88,461.88,33.89,462.1,33.89z"/>
	<path class="st1" d="M545.54,162.89c-0.53,3.32-0.85,6.65-0.82,10.01c-0.66,7.07-1.45,14.12-1.93,21.2
		c-0.2,2.89-1.11,4.26-4.12,5.03c-8.41,2.13-16.7,4.73-25.03,7.14c-3.6,0.99-7.21,1.98-10.81,2.96c-4.59,1.09-9.16,2.24-13.6,3.87
		c-4.64,2.11-9.07,0.28-13.54-0.71c-4.43-1.64-9.01-2.78-13.6-3.89c-4.47-1.37-8.9-2.85-13.52-3.69
		c-6.76-1.97-13.47-4.09-20.29-5.84c-2.56-0.66-3.5-1.8-3.49-4.34c0.01-2-0.43-3.99-0.67-5.99c-0.09-4.97-0.44-9.92-1.33-14.83
		c-0.25-4.24-0.41-8.49-0.78-12.71c-0.54-6.23-1.24-12.44-1.87-18.66c-0.01-2.7-0.01-5.39-0.73-8.03
		c-0.04-5.05-0.5-10.07-1.28-15.06c0.04-3.6-0.34-7.16-0.88-10.72c-0.19-4.99-0.56-9.96-1.31-14.91c-0.07-4.56-0.45-9.09-1.22-13.58
		c-0.07-5.48-0.56-10.92-1.38-16.33c-0.23-3.32-0.46-6.65-0.68-9.97c15.9-0.08,31.81-0.21,47.71-0.22
		c29.79-0.03,59.58,0.01,89.36,0.03c4.77,0,4.77,0.01,4.59,4.87c-0.02,0.45,0.05,0.9,0.08,1.34c-0.04,0.66-0.08,1.32-0.12,1.99
		c-0.98,7.21-1.54,14.47-1.9,21.73c-0.43,3.37-0.98,6.73-0.8,10.15c-0.84,4.49-1.06,9.03-1.23,13.58c-0.5,3.34-0.92,6.68-0.85,10.07
		c-0.57,5.69-1.15,11.37-1.72,17.06c-0.3,4.51-0.6,9.01-0.9,13.52C546.08,152.9,545.72,157.89,545.54,162.89z M475.66,101.21
		c0.04,0.22,0.03,0.43-0.01,0.65c-3.46,1.78-6.92,3.56-10.39,5.34c-1.19,0.21-2.2,0.79-3.14,1.51c-4.82,2.41-9.64,4.82-14.46,7.23
		c-1.51,0.74-3.03,1.49-4.54,2.23c-0.41,0.02-0.64,0.19-0.55,0.64c0,0.47,0.01,0.93,0.01,1.4c0.44,5.19,0.88,10.39,1.31,15.58
		c0.21,2.35,2.05,1.29,3.11,1.3c12.24,0.11,24.48,0.1,36.73,0.13c0.02,9.23,0.04,18.47,0.06,27.7c-2.86,0.02-5.38-1.48-8.17-1.8
		c-2.02-0.53-4.04-1.06-6.07-1.59c-0.51-0.22-1.01-0.57-1.54-0.63c-3.13-0.32-4.42-1.89-4.25-5.12c0.14-2.68-0.34-5.4-0.46-8.1
		c-0.06-1.35-0.51-2.07-2-2.06c-4.97,0.04-9.93,0-14.9-0.01c-1.02,0-1.79,0.26-1.66,1.53c0.58,5.71,1.16,11.42,1.73,17.13
		c0.11,2.1,0.3,4.19,0.31,6.29c0.01,2.09,0.99,3.04,3.03,2.99c8.5,2.73,17.11,5.04,25.79,7.1c2.71,0.85,5.41,1.7,8.12,2.55
		c0.02,5.19,0.1,10.38,0.04,15.58c-0.03,2.2,0.43,3.07,2.92,2.37c12.44-3.5,24.88-7.02,37.42-10.15c4.12-1.03,5.76-2.43,6.15-7.1
		c0.99-11.63,1.95-23.27,3.03-34.89c0.77-8.28,1.42-16.56,2.18-24.84c0.82-8.94,1.71-17.87,2.54-26.82
		c0.88-9.5,1.67-19.01,2.6-28.51c0.19-1.96-0.09-2.92-2.37-2.91c-17.27,0.06-34.55,0.06-51.82-0.01c-2.14-0.01-2.73,0.78-2.66,2.78
		c0.12,3.61-0.15,7.23,0.09,10.83c0.18,2.74-0.8,3.42-3.43,3.39c-12.53-0.13-25.06-0.07-37.59-0.07c-4.24,0-4.48,0.37-3.23,4.8
		c0.26,2.03,0.52,4.05,0.79,6.08c0.05,1.68,0.14,3.37,0.13,5.05c-0.01,1.63,0.51,2.45,2.35,2.41c6.63-0.13,13.27-0.13,19.9-0.18
		c3.39,0,6.79,0,10.18,0C473.85,101.09,474.76,101.15,475.66,101.21z"/>
	<path class="st2" d="M439.6,87.67c-1.25-4.43-1.01-4.8,3.23-4.8c12.53,0,25.06-0.06,37.59,0.07c2.63,0.03,3.61-0.65,3.43-3.39
		c-0.24-3.6,0.03-7.22-0.09-10.83c-0.06-2,0.53-2.79,2.66-2.78c17.27,0.07,34.55,0.07,51.82,0.01c2.27-0.01,2.56,0.95,2.37,2.91
		c-0.93,9.5-1.72,19.01-2.6,28.51c-0.83,8.94-1.72,17.87-2.54,26.82c-0.76,8.28-1.41,16.57-2.18,24.84
		c-1.08,11.62-2.04,23.26-3.03,34.89c-0.4,4.67-2.04,6.08-6.15,7.1c-12.54,3.13-24.98,6.65-37.42,10.15
		c-2.5,0.7-2.95-0.16-2.92-2.37c0.06-5.19-0.02-10.38-0.04-15.57c1.85-0.64,3.7-1.28,5.55-1.91c4.63-0.77,9.04-2.34,13.52-3.64
		c3.15-0.65,6.28-1.36,9.27-2.6c1.48-0.27,3-0.44,4.31-1.27c2.68,0,4.24-0.85,4.29-4.02c0.04-2.74,0.52-5.49,0.44-8.26
		c0.82-4.48,1.08-9.01,1.27-13.55c0.58-3.53,0.93-7.09,0.84-10.68c0.07-0.25,0.15-0.5,0.22-0.75c0.06-0.7,0.12-1.4,0.19-2.1
		c0.36-4.15,0.51-8.34,1.16-12.44c0.37-2.31-0.33-2.73-2.36-2.7c-6.54,0.12-13.09,0.13-19.63,0.18c-3.53,0-7.05,0-10.58,0
		c-0.05-0.3-0.1-0.61-0.16-0.91c3.59-1.93,7.18-3.85,10.77-5.78c3.77-1.51,7.39-3.34,10.87-5.44c1.04-0.16,1.92-0.63,2.69-1.34
		c2.83-1.34,5.67-2.69,8.51-4.01c0.98-0.46,1.66-1.06,1.73-2.24c0.12-2.01,0.8-3.97,0.48-6.02c0.27-2.66,0.49-5.33,0.81-7.98
		c0.21-1.75-0.45-2.42-2.22-2.35c-3.12,0.13-6.24,0.11-9.36,0.16c-4.51,0-9.03,0-13.54,0c-4.53,0-9.05,0-13.58,0
		c-4.52,0.01-9.04,0.03-13.56,0.04c-4.51,0-9.02,0-13.53,0c-4.53,0-9.06,0-13.59,0c-1.54-0.04-3.11,0.07-4.62-0.16
		C440.5,82.93,439.02,84.2,439.6,87.67z"/>
	<path class="st2" d="M483.54,164.87c-0.02-9.23-0.04-18.47-0.06-27.7c1.84-0.09,3.69-0.19,5.53-0.28
		c3.84,0.01,7.68,0.02,11.52,0.03c0.67,0,1.34,0,2.02,0c1.75-0.05,2.22,0.86,2.09,2.49c-0.23,2.84-0.31,5.7-0.45,8.55
		c-0.06,0.9-0.12,1.81-0.18,2.71c-0.02,0.66-0.05,1.32-0.07,1.99c-0.04,0.64-0.07,1.29-0.11,1.93c-0.15,0.53-0.47,1.08-0.41,1.59
		c0.38,3.13-1.24,4.25-4.08,4.8c-3.28,0.63-6.47,1.75-9.71,2.65C487.55,163.78,485.71,165.13,483.54,164.87z"/>
</g>
<g>
	<path class="st0" d="M274.18,34.34c0.93-0.07,1.86-0.13,2.8-0.2c2.26,0.05,4.52,0.03,6.77,0.18c1.67,0.11,2.13-0.6,2.1-2.17
		c-0.11-5.42-0.12-10.84-0.16-16.27c0.98-2.81,3.45-0.61,5-1.5c1.68-0.07,2.28,0.67,2.21,2.39c-0.11,2.9,0.05,5.81,0.09,8.71
		c-0.3,5-0.29,10.01-0.01,15.01c-0.22,0.87-0.99,0.8-1.63,0.96c-5.45-0.29-10.91-0.31-16.36,0.03c-0.43-0.36-0.85-0.73-1.28-1.09
		C273.88,38.38,274.03,36.36,274.18,34.34z"/>
	<path class="st0" d="M318.07,14.38c3.87,0.26,5.09,2.19,4.07,6.12c-0.4,1.55-1.51,1.12-2.42,1.13c-4.44,0.03-8.88-0.01-13.33-0.04
		c-1.28-0.01-2.6-0.17-2.5,1.81c0.09,1.9,1.49,1.37,2.5,1.38c4.33,0.04,8.66-0.03,12.99,0.01c1.12,0.01,2.65-0.59,2.9,1.37
		c0,4.56,0,9.11,0,13.67c-0.25,2.52-2.4,1.04-3.54,1.68c-6.44-0.06-12.88-0.11-19.31-0.18c-1.16-0.01-2.63,0.44-2.74-1.52
		c0.66-2.22-1.59-6.31,3.6-5.65c0.23,0,0.47,0.01,0.7,0.01c1.13-0.01,2.25-0.02,3.38-0.03c2.72,0.05,5.44,0.13,8.16,0.13
		c1.03,0,2.36,0.47,2.44-1.41c0.09-1.94-1.11-1.83-2.43-1.83c-5.22-0.01-10.44-0.07-15.66-0.12c-0.07-1.58-0.13-3.16-0.2-4.74
		c0.05-3.13,0.19-6.27,0.11-9.4c-0.05-1.75,0.47-2.41,2.27-2.29c1.78,0.12,3.58-0.06,5.37-0.1
		C308.97,14.39,313.52,14.39,318.07,14.38z"/>
	<path class="st1" d="M361.77,53.77c1.91,0.31,3.82,0.34,5.72-0.02c0.64,0.16,1.28,0.31,1.92,0.47c-0.34,4.33-0.67,8.67-1.01,13
		c-0.54,4.54-1.18,9.07-1.09,13.66c-0.8,4.53-1.15,9.11-1.22,13.71c-0.41,4.13-0.81,8.26-1.22,12.38
		c-0.46,4.96-1.13,9.91-1.08,14.91c-0.8,4.55-1.28,9.13-1.22,13.76c-0.71,4.54-1.17,9.1-1.24,13.7c-0.42,4.55-0.83,9.1-1.25,13.65
		c-0.43,4.55-1.16,9.07-1.04,13.66c-0.66,6.54-1.53,13.07-1.87,19.63c-0.15,2.86-1.22,3.9-3.78,4.58
		c-7.24,1.92-14.41,4.08-21.61,6.15c-4.61,1.16-9.24,2.22-13.7,3.9c-4.34,1.18-8.69,2.36-13.03,3.54c-0.26,0.15-0.53,0.3-0.8,0.45
		c0,0-0.07-0.05-0.07-0.05c-4.53,1.48-9.02,1.55-13.49-0.24c-4.73-1.45-9.44-2.96-14.32-3.85c-4.21-1.74-8.67-2.65-13.06-3.79
		c-7.21-2.07-14.38-4.28-21.65-6.14c-2.6-0.66-3.54-1.91-3.61-4.43c-0.06-2.02,0.15-4.1-0.7-6.04c-0.35-9.36-1.31-18.68-2.28-27.99
		c-0.09-0.74-0.17-1.49-0.26-2.23c0.29-0.48,0.14-0.9-0.19-1.29c-0.02-3.19,0.02-6.39-0.79-9.51c-0.09-4.6-0.42-9.18-1.22-13.72
		c0.1-4.58-0.52-9.1-1.08-13.63c-0.4-4.57-0.79-9.15-1.19-13.72c0.13-1.45,0.11-2.89-0.39-4.28c0.33-0.46,0.21-0.86-0.14-1.23
		c0.02-2.75,0.06-5.5-0.72-8.17c-0.06-4.87-0.55-9.71-1.21-14.54c-0.35-4.27-0.71-8.55-1.06-12.82c-0.33-4.41-0.65-8.82-0.98-13.23
		c1.72,0.01,3.46,0.28,5.16-0.22c1.63,0.31,3.26,0.31,4.89,0.01c5.45,0.49,10.9,0.49,16.35-0.01c3.68,0.35,7.35,0.33,11.03,0.01
		c5.44,0.5,10.88,0.5,16.32-0.02c3.69,0.37,7.37,0.33,11.06,0.02c5.45,0.5,10.89,0.49,16.34-0.01c3.68,0.35,7.36,0.33,11.04,0.01
		c5.45,0.5,10.89,0.49,16.34-0.01c3.68,0.35,7.36,0.33,11.04,0.01C350.87,54.28,356.32,54.28,361.77,53.77z M277.04,180.6
		c4.56,1.2,9.12,2.4,13.68,3.6c2.54,0.13,1.27-1.83,1.27-2.71c0.09-30.5,0.09-61.01,0.11-91.51c0-6.05,0-6.05-6.11-6.05
		c-10.4,0-10.4,0-9.47,10.67c0.01,0.46,0.01,0.92,0.02,1.38c-0.06,1.25-0.16,2.49-0.16,3.74c-0.01,20.15,0.01,40.3-0.05,60.45
		c0,1.27,0.94,3.11-1.32,3.66c-1.43-0.58-2.89-1.07-4.47-0.92c-4.36-2.03-9.1-2.82-13.68-4.13c-2.49-0.72-5.65-2.79-7.38-1.47
		c-1.72,1.32-0.64,4.94-0.55,7.51c0.1,2.73-0.97,5.6,0.69,8.2c4.51,1.45,9.04,2.8,13.69,3.69c0,0,0,0,0,0
		C267.78,178.39,272.41,179.51,277.04,180.6z M297.55,134.61c0,21.55,0,43.1,0,64.65c0,4.61,0.01,4.64,4.62,3.45
		c1.42-0.37,2.78-0.97,4.19-1.36c11.71-3.19,23.4-6.44,35.15-9.45c2.54-0.65,3.37-1.89,3.26-4.28c-0.32-7.06,1.14-14,1.54-21.03
		c0.56-9.83,1.7-19.62,2.55-29.43c0.34-3.95,0.29-7.96,0.89-11.87c1.72-11.21,1.99-22.54,3.21-33.79
		c0.76-6.97,1.25-13.98,1.99-20.95c0.29-2.71,0.01-4.13-3.39-4.1c-16.76,0.17-33.53,0.16-50.29,0c-3.06-0.03-3.81,0.85-3.8,3.84
		C297.61,91.73,297.56,113.17,297.55,134.61z"/>
	<path class="st2" d="M297.55,134.61c0-21.44,0.06-42.87-0.07-64.31c-0.02-2.99,0.74-3.87,3.8-3.84c16.76,0.15,33.53,0.16,50.29,0
		c3.4-0.03,3.68,1.39,3.39,4.1c-0.75,6.98-1.24,13.98-1.99,20.95c-1.22,11.25-1.49,22.58-3.21,33.79c-0.6,3.91-0.55,7.92-0.89,11.87
		c-0.85,9.81-1.99,19.6-2.55,29.43c-0.4,7.02-1.86,13.96-1.54,21.03c0.11,2.4-0.72,3.63-3.26,4.28
		c-11.75,3.02-23.45,6.26-35.15,9.45c-1.42,0.39-2.77,0.99-4.19,1.36c-4.61,1.19-4.62,1.17-4.62-3.45
		C297.55,177.71,297.55,156.16,297.55,134.61z M303.3,108.9c0.01,4.35,0.01,8.69,0.02,13.04c-0.07,7.07-0.11,14.13-0.24,21.19
		c-0.04,2.02,0.89,2.21,2.57,1.89c4.14-0.77,8.3-1.41,12.45-2.11c1.79-0.25,3.6-0.47,5.38-0.76c5.16-0.86,5.15-0.87,4.82,4.44
		c-0.06,0.9-0.04,1.81-0.05,2.72c-0.42,3.07-1.11,6.14-1.18,9.22c-0.06,2.36-0.88,3.71-3.03,4.38c-2.1,0.05-4.01,0.84-5.94,1.52
		c-4.36,1.19-8.72,2.38-13.08,3.56c-0.24,0.15-0.48,0.3-0.71,0.45l0.02-0.08c-0.22,0.06-0.6,0.08-0.62,0.19
		c-1.22,5.02-0.26,10.11-0.45,15.17c-0.04,1.01,0.95,0.75,1.57,0.57c4.46-1.29,8.91-2.62,13.37-3.93c4.27-0.84,8.5-1.84,12.53-3.54
		c0.35-0.06,0.7-0.12,1.05-0.17c10.03-2.59,8.07-0.41,8.99-9.99c0.12-1.22,0.23-2.45,0.34-3.67c0.44-4.54,1.17-9.05,1.08-13.62
		c0.87-4.53,1.23-9.1,1.29-13.71c0.41-3.36,0.78-6.73,1.24-10.09c0.26-1.9-0.62-2.01-2.16-1.73c-3.57,0.64-7.17,1.14-10.76,1.69
		c-3.48,0.51-6.98,0.87-10.42,1.58c-2.08,0.43-2.62-0.2-2.6-2.16c0.06-7.61,0.09-15.23-0.01-22.84c-0.03-2.17,0.79-2.7,2.8-2.63
		c3.4,0.11,6.81-0.04,10.22-0.08c4.21,0.05,8.43,0.08,12.64,0.14c1.43,0.02,2.31-0.32,2.43-2.06c0.25-3.86,0.7-7.7,1.1-11.55
		c0.14-1.34-0.3-1.98-1.71-1.68c-0.26,0.01-0.53,0.03-0.79,0.04l0.01,0c-4.55,0-9.11-0.01-13.66-0.01l0.01,0
		c-0.25-0.3-0.51-0.3-0.79-0.03c-4.06,0-8.12,0-12.18,0c-0.27-0.26-0.53-0.26-0.77,0.03l0.01,0c-3.4,0-6.8,0-10.2,0
		c-0.27,0-0.55-0.01-0.82-0.01c-0.43,0-0.86-0.01-1.29-0.01c-1.84-0.61-2.76-0.08-2.66,1.99c0.12,2.77,0.14,5.55,0.2,8.33
		c0,4.56,0.01,9.12,0.01,13.68C303.17,108.47,303.17,108.69,303.3,108.9z"/>
</g>
<g>
	<path class="st0" d="M109.3,14.81c2.06-0.04,4.12-0.09,6.17-0.13c1.63-0.04,2.68,0.67,3.5,2.14c1.49,2.67,3.2,5.22,5.05,8.2
		c2.12-3.54,4.03-6.73,5.93-9.91c2.91-0.61,5.85-0.14,8.78-0.28c0.07,6.95,0.18,13.9,0.22,20.84c0.04,6.11,0.01,5.98-6.11,6.03
		c-2.27,0.02-2.64-0.84-2.56-2.76c0.12-3.11,0.03-6.23,0.03-9.35c-1.56,1.27-2.45,2.69-3.33,4.1c-0.93,1.49-1.87,2.98-2.98,4.76
		c-1.15-1.83-2.05-3.26-2.95-4.7c-0.92-1.48-1.84-2.96-2.76-4.43c-0.66,1.46-0.65,2.66-0.66,3.86c-0.01,2.62,0.91,5.82-0.27,7.71
		c-1.32,2.11-4.84,0.17-7.31,0.91c-0.33-0.09-0.67-0.19-1-0.28C108.92,32.61,108.68,23.7,109.3,14.81z"/>
	<path class="st0" d="M74.42,14.69c2.11,0.08,1.19,1.83,1.57,2.86c0,0.68,0,1.37,0,2.05c0.01,2.27,0.01,4.54,0.02,6.81
		c0,4.58,0,9.17-0.01,13.75c-0.07,0.45-0.15,0.91-0.22,1.36c-2.49,0.09-4.99,0.19-7.48,0.28c-0.94-0.16-1.21-0.87-1.37-1.67
		c0.32-8.54,1.36-7.07-6.21-6.86c-2.22-0.66-3.19,0.07-2.9,2.46c0.18,1.45,0.13,2.93,0.19,4.4c-0.1,0.9-0.51,1.52-1.46,1.68
		c-2.49-0.1-4.98-0.2-7.47-0.3c-0.06-0.46-0.12-0.92-0.18-1.38c0-4.56-0.01-9.13-0.01-13.69c0.05-3.16,0.09-6.31,0.17-9.47
		c0.02-0.94-0.3-1.92,1.3-2.21c6.13-1.13,7.47-0.13,7.5,5.92c0,1.01,0.13,2.01,0.19,3.02c-0.08,0.51,0.16,0.63,0.61,0.49
		c0.68,0,1.36-0.01,2.04-0.01c1.46,0.05,2.93,0.02,4.37,0.16c1.7,0.17,2.07-0.62,2.09-2.16c0.03-2.34-1.03-5.28,0.46-6.85
		C69.13,13.74,72.12,15.18,74.42,14.69z"/>
	<path class="st0" d="M87.45,26.45c0.5-1.89,0.23-3-2.18-2.88c-1.75,0.08-4.47,0.95-5.1-0.51c-0.87-2.03-0.33-4.69-0.34-7.07
		c0-1.43,1.13-1.15,1.99-1.16c7.06-0.01,14.13,0.03,21.19-0.04c1.63-0.02,2.29,0.5,2.14,2.14c-0.1,1.13-0.17,2.3,0.01,3.41
		c0.46,2.78-0.83,3.66-3.36,3.42c-1.83,0.79-5.87-2.74-5.29,2.72c0.01,4.55,0.01,9.09,0.02,13.64c-0.07,0.47-0.14,0.94-0.21,1.41
		c-2.76,0.05-5.53,0.1-8.29,0.14l-0.2-0.1c-0.12-0.29-0.24-0.59-0.36-0.88c0.13-0.19,0.12-0.38-0.03-0.55
		C87.74,35.58,87.74,31.01,87.45,26.45z"/>
	<path class="st0" d="M142.9,41.43c-0.06-5-0.11-10-0.17-14.99c0.06-3.84,0.13-7.68,0.19-11.52c8.74-0.44,8.74-0.44,8.76,8.18
		c0,1.12,0.09,2.24,0.14,3.36c-0.17,2.04-0.39,4.09,0.12,6.12c1.55,1.09,3.29,0.44,4.93,0.43c7.01-0.02,7.01-0.07,7.38,6.83
		c0.01,0.11,0.05,0.22,0.07,0.33c-0.07,0.45-0.14,0.89-0.21,1.34C157.04,41.48,149.97,41.46,142.9,41.43z"/>
	<path class="st1" d="M35.98,59.28c0.02-4.89,0.02-4.89,5.04-4.89c44.86,0,89.73,0.03,134.59-0.05c2.6,0,3.83,0.61,3.43,3.33
		c-0.06,0.57-0.12,1.13-0.18,1.69c-0.04,0.43-0.09,0.86-0.13,1.28c-0.1,1.57-0.21,3.14-0.31,4.72c-0.8,5.25-1.22,10.54-1.33,15.85
		c-0.63,2.46-0.73,4.97-0.69,7.5c-0.59,1.56-0.6,3.17-0.49,4.8c-0.02,0.46-0.04,0.92-0.06,1.38c-0.44,5.02-0.88,10.03-1.31,15.05
		c-0.53,3.84-0.98,7.68-0.93,11.57c-0.78,4.79-1.19,9.62-1.25,14.48c-0.63,2.69-0.79,5.42-0.75,8.17c-0.52,1.1-0.53,2.25-0.39,3.42
		c-0.04,0.7-0.07,1.39-0.11,2.09c-0.67,4.99-1.24,10-1.28,15.04c-0.03,0.47-0.07,0.93-0.1,1.4c-0.58,3.4-1.02,6.81-0.83,10.28
		c-0.66,4.76-1.65,9.5-1.32,14.35c-0.2,1.34-0.45,2.68-0.58,4.03c-0.53,5.5-0.53,5.44-5.94,6.97c-6.08,1.72-12.14,3.55-18.2,5.34
		c-4.67,0.8-9.16,2.3-13.66,3.71c-4.63,1.09-9.24,2.25-13.71,3.9c-4.53,0.92-8.99,3.02-13.68,0.69c-4.47-1.66-9.08-2.82-13.71-3.92
		c-4.34-1.2-8.69-2.4-13.03-3.6c-7.74-2.24-15.44-4.63-23.25-6.62c-2.83-0.72-3.83-2.03-3.96-4.79c-0.12-2.59,0.06-5.24-0.77-7.77
		c-0.1-1.38-0.19-2.76-0.29-4.14c-0.31-4.11-0.24-8.25-1.11-12.3c0.04-2.98-0.22-5.93-0.79-8.86c-0.09-4.6-0.44-9.18-1.22-13.71
		c0.07-4.59-0.54-9.12-1.09-13.66c-0.4-4.58-0.8-9.15-1.2-13.73c-0.04-0.69-0.09-1.38-0.13-2.08c0.17-0.97,0.14-1.92-0.34-2.82
		c0.02-2.95-0.15-5.89-0.77-8.78c-0.07-4.6-0.43-9.18-1.22-13.72c0.03-4.58-0.54-9.11-1.07-13.65c-0.45-6.64-0.78-13.28-1.78-19.87
		C36.06,60.66,36.02,59.97,35.98,59.28z M71.66,138.59c0.23-0.01,0.46-0.02,0.69-0.03c0.68-0.01,1.36-0.01,2.04-0.02
		c0.23,0,0.46,0,0.69-0.01c4.12,0,8.25,0,12.37,0c0.23,0,0.46,0,0.69,0c4.55,0,9.09,0,13.64,0c1.83,0.09,3.66,0.18,5.49,0.27
		c0.01,5.35-0.07,10.69,0.04,16.04c0.08,3.95-0.59,7.96,0.64,11.85c-2.2,0.51-4.06-0.97-6.15-1.08c-2.88-0.96-5.77-1.91-8.8-2.31
		c-4.65-0.63-6.38-3.34-5.86-7.89c0.16-1.43-0.3-2.93-0.47-4.39c0.51-2.7-0.35-3.85-3.34-3.67c-4.15,0.24-8.34,0.2-12.49-0.03
		c-2.59-0.14-3.26,0.7-2.44,3.03c0.11,4.37,0.41,8.72,1.18,13.03c0.11,2.24,0.14,4.49,0.35,6.72c0.48,5.1,0.51,5.1,5.79,6.11
		c0.98,0.26,1.97,0.53,2.95,0.79c8.04,2.71,16.28,4.72,24.49,6.83c1.37,0.47,2.75,0.95,4.12,1.42c0,4.9,0,9.8,0.01,14.7
		c0.01,4.19,0.05,4.17,3.93,3.07c2.72-0.77,5.51-1.3,8.23-2.05c10.71-2.95,21.42-5.94,32.13-8.9c1.49-0.41,2-1.29,2.39-2.84
		c0.75-2.94,0.2-5.92,0.7-8.82c1.5-8.72,1.68-17.56,2.56-26.34c0.62-6.2,0.75-12.45,1.55-18.62c1.23-9.44,1.58-18.94,2.57-28.39
		c0.68-6.52,1.31-13.06,1.91-19.59c0.54-5.86,1-11.73,1.53-17.6c0.19-2.07-0.34-3.09-2.76-3.08c-17.33,0.09-34.65,0.09-51.98,0
		c-2.37-0.01-2.87,0.94-2.82,3.05c0.12,4.67,0.04,9.34,0.05,14.02c-13.91,0.03-27.83,0.04-41.74,0.13
		c-1.12,0.01-2.53-0.77-3.38,0.71c0.47,3.4,0.94,6.8,1.41,10.2c0.16,4.58,0.45,9.16,1.23,13.69c-0.13,3.24,0.33,6.43,0.79,9.61
		c0.02,0.44,0.05,0.88,0.07,1.32c0.03,0.48,0.07,0.97,0.1,1.45c0.19,2.05,0.38,4.09,0.57,6.14c-0.1,1.84-0.1,3.67,0.53,5.44
		c0.06,0.92,0.12,1.84,0.18,2.76c0.03,0.44,0.05,0.88,0.08,1.31c0.07,0.46,0.15,0.91,0.22,1.37c0.46,1.25,1.42,0.61,2.22,0.58
		c0.48,0,0.95,0,1.43,0l0.32,0.11C71.33,138.68,71.66,138.59,71.66,138.59z"/>
	<path class="st2" d="M107.29,83.87c0-4.67,0.07-9.35-0.05-14.02c-0.05-2.11,0.44-3.06,2.82-3.05c17.33,0.08,34.65,0.08,51.98,0
		c2.42-0.01,2.94,1.01,2.76,3.08c-0.53,5.86-0.99,11.73-1.53,17.6c-0.6,6.53-1.23,13.06-1.91,19.59
		c-0.99,9.45-1.34,18.96-2.57,28.39c-0.8,6.17-0.93,12.42-1.55,18.62c-0.88,8.78-1.06,17.62-2.56,26.34c-0.5,2.9,0.05,5.87-0.7,8.82
		c-0.39,1.55-0.9,2.43-2.39,2.84c-10.71,2.96-21.41,5.96-32.13,8.9c-2.73,0.75-5.51,1.28-8.23,2.05c-3.88,1.1-3.92,1.12-3.93-3.07
		c-0.01-4.9-0.01-9.8-0.01-14.7c2.76-0.85,5.52-1.71,8.28-2.56c9.2-2.25,18.37-4.61,27.37-7.58c1.34,0.05,1.72-0.74,1.79-1.92
		c0.22-3.94,0.48-7.88,0.72-11.82c0.87-4.76,1.02-9.6,1.37-14.41c0.39-3.66,1.03-7.3,0.84-11c0.48-4.52,0.92-9.04,1.46-13.56
		c0.19-1.56-0.41-2.05-1.87-1.99c-6.02,0.25-12.06-0.28-18.08,0.35c-4.48-0.59-8.98-0.15-13.47-0.24c-0.34,0-0.68,0.01-1.02,0.01
		c-2.44-0.07-4.89-0.14-7.33-0.21c-0.03-5.93-0.06-11.86-0.09-17.8c2.74-0.1,5.48-0.2,8.21-0.3c4.58,0,9.16,0,13.73,0
		c4.55,0,9.1,0,13.65,0c9.82,0.18,7.86,1.52,8.34-7.29c0.1-0.49,0.19-0.98,0.29-1.47c0.03-0.42,0.06-0.85,0.1-1.27
		c0.22-1.89,0.47-3.77,0.63-5.66c0.08-0.91,0.61-2.12-1.01-2.34c-0.76-0.31-1.52-0.35-2.29-0.01c-2.01,0.12-4.04-0.3-6.03,0.27
		c-4.58-0.44-9.15-0.46-13.73,0c-4.54-0.46-9.07-0.43-13.61-0.01c-2.77-0.56-5.56-0.23-8.34-0.18
		C107.28,84.15,107.31,84.01,107.29,83.87z"/>
	<path class="st2" d="M107.95,166.7c-1.23-3.89-0.55-7.9-0.64-11.85c-0.11-5.34-0.04-10.69-0.04-16.04c2.75-0.09,5.5-0.18,8.25-0.28
		c3.66,0.01,7.31,0.02,10.97,0.03c1.74-0.03,2.3,0.78,2.16,2.52c-0.38,4.76-0.81,9.54-0.83,14.31c-0.01,4.15-0.92,7.29-5.66,7.87
		c-2.33,0.12-4.47,0.99-6.66,1.69C112.98,165.53,110.47,166.11,107.95,166.7z"/>
	<path class="st1" d="M108.01,102.19c0.03,5.93,0.06,11.86,0.09,17.8c0,0,0,0.18,0,0.18c-7.54-0.66-15.09-0.05-22.63-0.33
		c-0.32-3.87-0.64-7.75-0.96-11.62c-0.08-0.95-0.17-1.89-0.25-2.84c0.29-0.48,0.19-0.93-0.12-1.37c0.3-3.5,3.25-1.15,4.7-2.13
		c0.23,0,0.45,0,0.68,0c4.34,0.01,8.69,0.02,13.03,0.03c0.22,0,0.44,0,0.67,0C104.81,102,106.41,102.1,108.01,102.19z"/>
</g>
</svg>
